
	<svg xmlns="http://www.w3.org/2000/svg" xmlns:xlink="http://www.w3.org/1999/xlink" version="1.1" width="512" height="512" viewBox="0 0 100 100">


		<defs>
			<linearGradient id="Gradient_2" gradientUnits="userSpaceOnUse" x1="50" y1="100" x2="50" y2="0" spreadMethod="pad">
<stop offset="0%" stop-color="#F6E64C"/>

<stop offset="100%" stop-color="#F6E64C"/>
</linearGradient><linearGradient id="Gradient_3" gradientUnits="userSpaceOnUse" x1="50" y1="43" x2="50" y2="0" spreadMethod="pad">
<stop offset="0%" stop-color="#FFFFFF" stop-opacity="0.1"/>

<stop offset="100%" stop-color="#FFFFFF" stop-opacity="0.7"/>
</linearGradient><linearGradient id="Gradient_4" gradientUnits="userSpaceOnUse" x1="95" y1="38" x2="7" y2="38" spreadMethod="pad">
<stop offset="0%" stop-color="#FFFFFF" stop-opacity="0.1"/>

<stop offset="100%" stop-color="#FFFFFF" stop-opacity="0.7"/>
</linearGradient><linearGradient id="Gradient_5" gradientUnits="userSpaceOnUse" x1="5" y1="38" x2="94" y2="38" spreadMethod="pad">
<stop offset="0%" stop-color="#FFFFFF" stop-opacity="0.1"/>

<stop offset="100%" stop-color="#FFFFFF" stop-opacity="0.7"/>
</linearGradient><g id="background">
<path fill="url(#background-gradient)" stroke="none" d=" M 93.5 25 Q 92.4 23.15 90.9 22.25 L 53.7 0.85 Q 52.15 0 50 0 47.85 0 46.35 0.85 L 9.15 22.25 Q 7.6 23.15 6.55 25 5.45 26.9 5.45 28.6 L 5.45 71.4 Q 5.45 73.15 6.55 75 7.6 76.85 9.15 77.75 L 46.35 99.1 Q 47.85 100 50 100 52.15 100 53.7 99.1 L 90.9 77.75 Q 92.4 76.85 93.5 75 94.55 73.15 94.55 71.4 L 94.55 28.6 Q 94.55 26.85 93.5 25 M 89.95 27.05 L 89.95 72.95 50 95.95 10.05 72.95 10.05 27.05 50 4.05 89.95 27.05 Z"/>

<path fill="url(#Gradient_2)" stroke="none" d=" M 83.4 69.2 L 83.4 30.8 50 11.6 16.65 30.8 16.65 69.2 50 88.4 83.4 69.2 Z"/>
</g><mask id="mask">
<path fill="#FFFFFF" stroke="none" d=" M 83.4 69.2 L 83.4 30.8 50 11.6 16.65 30.8 16.65 69.2 50 88.4 83.4 69.2 Z"/>
</mask><g id="Layer2_0_FILL">
<path fill="url(#Gradient_3)" stroke="none" d=" M 92.95 24.2 Q 91.95 22.9 90.9 22.25 L 53.7 0.85 Q 52.15 0 50 0 47.85 0 46.35 0.85 L 9.15 22.25 Q 8.1 22.9 7.05 24.2 14.4 32.95 25.45 37.95 36.9 43.05 50 43.05 63.05 43.05 74.55 37.95 85.7 32.95 92.95 24.2 Z"/>
</g><g id="Layer1_0_FILL">
<path fill="url(#Gradient_4)" stroke="none" d=" M 93.5 25 Q 92.4 23.15 90.9 22.25 L 53.7 0.85 Q 52.15 0 50 0 47.85 0 46.35 0.85 L 9.15 22.25 Q 7.65 23.15 6.6 24.9 L 93.4 75.15 Q 94.55 73.2 94.55 71.4 L 94.55 28.6 Q 94.55 26.85 93.5 25 Z"/>
</g><g id="Layer0_0_FILL">
<path fill="url(#Gradient_5)" stroke="none" d=" M 93.55 25.1 Q 92.45 23.15 90.9 22.25 L 53.7 0.85 Q 52.15 0 50 0 47.85 0 46.35 0.85 L 9.15 22.25 Q 7.6 23.15 6.55 25 5.45 26.9 5.45 28.6 L 5.45 71.4 Q 5.45 73.25 6.7 75.15 L 93.55 25.1 Z"/>
</g>
			
	<linearGradient id="background-gradient" x1="0" y1="0" y2="1" x2="0" >
		<stop stop-color="#F6E64C" offset="0%"/>
		<stop stop-color="#F6E64C" offset="100%"/>
	</linearGradient>

			
			
			<g transform="scale(3.4482758620689653) translate(-0.5 -0.5)" id="picture"><path d="M16 8.5h-3.5v6H16c1.4 0 2.5-1.1 2.5-2.5v-1c0-1.4-1.1-2.5-2.5-2.5zm-3.5 13H16c1.4 0 2.5-1.1 2.5-2.5v-1c0-1.4-1.1-2.5-2.5-2.5h-3.5v6z M15 .5C7 .5.5 7 .5 15S7 29.5 15 29.5 29.5 23 29.5 15 23 .5 15 .5zM19.5 12c0 1.3-.7 2.4-1.7 3 1 .6 1.7 1.7 1.7 3v1c0 1.8-1.3 3.2-3 3.4v.6c0 .3-.2.5-.5.5s-.5-.2-.5-.5v-.5h-1v.5c0 .3-.2.5-.5.5s-.5-.2-.5-.5v-.5H12c-.3 0-.5-.2-.5-.5V8c0-.3.2-.5.5-.5h1.5V7c0-.3.2-.5.5-.5s.5.2.5.5v.5h1V7c0-.3.2-.5.5-.5s.5.2.5.5v.6c1.7.2 3 1.7 3 3.4v1z"/></g>
			
	<linearGradient id="picture-gradient" x1="0" y1="0" y2="1" x2="0" >
		<stop stop-color="#000000" offset="0%"/>
		<stop stop-color="#000000" offset="100%"/>
	</linearGradient>

		</defs>

		

			<use xlink:href="#background" fill="url(#background-gradient)" />

		

			<g mask="url(#mask)">
				<g transform="
				        translate(
                                50 50
)
                            translate(0 0)  scale(0.5)  
                            translate(
                                -50 -50
)">
						<use xlink:href="#picture" fill="url(#picture-gradient)"  />
				</g>
			</g>

		

			<use xlink:href="#gloss-top" opacity="1" />


	</svg>
